<svg width="256" height="153" viewBox="0 0 256 153" fill="none" xmlns="http://www.w3.org/2000/svg">
  <path d="M128 0C57.3 0 0 57.3 0 128C0 198.7 57.3 256 128 256C198.7 256 256 198.7 256 128C256 57.3 198.7 0 128 0ZM128 230.4C70.9 230.4 25.6 185.1 25.6 128C25.6 70.9 70.9 25.6 128 25.6C185.1 25.6 230.4 70.9 230.4 128C230.4 185.1 185.1 230.4 128 230.4Z" fill="#189EFF"/>
  <path d="M85.3 170.7C76.5 161.9 76.5 147.5 85.3 138.7L108.8 115.2L85.3 91.7C76.5 82.9 76.5 68.5 85.3 59.7C94.1 50.9 108.5 50.9 117.3 59.7L153.6 96C157.9 100.3 160.1 106.2 160.1 112.2C160.1 118.2 157.9 124.1 153.6 128.4L117.3 164.7C108.5 173.5 94.1 173.5 85.3 170.7Z" fill="#FFFFFF"/>
</svg>
